<svg xmlns="http://www.w3.org/2000/svg" width="64" height="64" viewBox="0 0 64 64">
  <defs>
    <linearGradient id="bg" x1="0" y1="0" x2="1" y2="1">
      <stop offset="0%" stop-color="#8B5CF6"/>
      <stop offset="50%" stop-color="#7C3AED"/>
      <stop offset="100%" stop-color="#6366F1"/>
    </linearGradient>
  </defs>
  <rect width="64" height="64" rx="14" fill="url(#bg)"/>
  <!-- large star -->
  <path d="M28 12c.6 5.2 2.8 7.4 8 8-5.2.6-7.4 2.8-8 8-.6-5.2-2.8-7.4-8-8 5.2-.6 7.4-2.8 8-8Z" fill="white"/>
  <!-- small star -->
  <path d="M43 34c.28 2.4 1.32 3.44 3.72 3.72-2.4.28-3.44 1.32-3.72 3.72-.28-2.4-1.32-3.44-3.72-3.72 2.4-.28 3.44-1.32 3.72-3.72Z" fill="white" opacity="0.9"/>
</svg>
